HIERARCHY
ROOT Hips
{
	OFFSET 0.000000 0.000000 0.000000
	CHANNELS 6 Xposition Yposition Zposition Zrotation Yrotation Xrotation 
	JOINT LHipJoint
	{
		OFFSET 0.000000 0.000000 0.000000
		CHANNELS 3 Zrotation Yrotation Xrotation
		JOINT LeftUpLeg
		{
			OFFSET 1.363060 -1.794630 0.839290
			CHANNELS 3 Zrotation Yrotation Xrotation
			JOINT LeftLeg
			{
				OFFSET 2.448110 -6.726130 0.000000
				CHANNELS 3 Zrotation Yrotation Xrotation
				JOINT LeftFoot
				{
					OFFSET 2.562200 -7.039590 0.000000
					CHANNELS 3 Zrotation Yrotation Xrotation
					JOINT LeftToeBase
					{
						OFFSET 0.157640 -0.433110 2.322550
						CHANNELS 3 Zrotation Yrotation Xrotation
						End Site
						{
							OFFSET 0.000000 0.000000 0.000000
						}
					}
				}
			}
		}
	}
	JOINT RHipJoint
	{
		OFFSET 0.000000 0.000000 0.000000
		CHANNELS 3 Zrotation Yrotation Xrotation
		JOINT RightUpLeg
		{
			OFFSET -1.305520 -1.794630 0.839290
			CHANNELS 3 Zrotation Yrotation Xrotation
			JOINT RightLeg
			{
				OFFSET -2.542530 -6.985550 0.000000
				CHANNELS 3 Zrotation Yrotation Xrotation
				JOINT RightFoot
				{
					OFFSET -2.568260 -7.056230 0.000000
					CHANNELS 3 Zrotation Yrotation Xrotation
					JOINT RightToeBase
					{
						OFFSET -0.164730 -0.452590 2.363150
						CHANNELS 3 Zrotation Yrotation Xrotation
						End Site
						{
							OFFSET 0.000000 0.000000 0.000000
						}
					}
				}
			}
		}
	}
	JOINT LowerBack
	{
		OFFSET 0.000000 0.000000 0.000000
		CHANNELS 3 Zrotation Yrotation Xrotation
		JOINT Spine
		{
			OFFSET 0.028270 2.035590 -0.193380
			CHANNELS 3 Zrotation Yrotation Xrotation
			JOINT Spine1
			{
				OFFSET 0.056720 2.048850 -0.042750
				CHANNELS 3 Zrotation Yrotation Xrotation
				JOINT Neck
				{
					OFFSET 0.000000 0.000000 0.000000
					CHANNELS 3 Zrotation Yrotation Xrotation
					JOINT Neck1
					{
						OFFSET -0.054170 1.746240 0.172020
						CHANNELS 3 Zrotation Yrotation Xrotation
						JOINT Head
						{
							OFFSET 0.104070 1.761360 -0.123970
							CHANNELS 3 Zrotation Yrotation Xrotation
							End Site
							{
								OFFSET 0.000000 0.000000 0.000000
							}
						}
					}
				}
				JOINT LeftShoulder
				{
					OFFSET 0.000000 0.000000 0.000000
					CHANNELS 3 Zrotation Yrotation Xrotation
					JOINT LeftArm
					{
						OFFSET 3.362410 1.200890 -0.311210
						CHANNELS 3 Zrotation Yrotation Xrotation
						JOINT LeftForeArm
						{
							OFFSET 4.983000 -0.000000 -0.000000
							CHANNELS 3 Zrotation Yrotation Xrotation
							JOINT LeftHand
							{
								OFFSET 3.483560 -0.000000 -0.000000
								CHANNELS 3 Zrotation Yrotation Xrotation
								JOINT LeftFingerBase
								{
									OFFSET 0.000000 0.000000 0.000000
									CHANNELS 3 Zrotation Yrotation Xrotation
									JOINT LeftHandIndex1
									{
										OFFSET 0.715260 -0.000000 -0.000000
										CHANNELS 3 Zrotation Yrotation Xrotation
										End Site
										{
											OFFSET 0.000000 0.000000 0.000000
										}
									}
								}
								JOINT LThumb
								{
									OFFSET 0.000000 0.000000 0.000000
									CHANNELS 3 Zrotation Yrotation Xrotation
									End Site
									{
										OFFSET 0.000000 0.000000 0.000000
									}
								}
							}
						}
					}
				}
				JOINT RightShoulder
				{
					OFFSET 0.000000 0.000000 0.000000
					CHANNELS 3 Zrotation Yrotation Xrotation
					JOINT RightArm
					{
						OFFSET -3.136600 1.374050 -0.404650
						CHANNELS 3 Zrotation Yrotation Xrotation
						JOINT RightForeArm
						{
							OFFSET -5.241900 -0.000000 -0.000000
							CHANNELS 3 Zrotation Yrotation Xrotation
							JOINT RightHand
							{
								OFFSET -3.444170 -0.000000 -0.000000
								CHANNELS 3 Zrotation Yrotation Xrotation
								JOINT RightFingerBase
								{
									OFFSET 0.000000 0.000000 0.000000
									CHANNELS 3 Zrotation Yrotation Xrotation
									JOINT RightHandIndex1
									{
										OFFSET -0.622530 -0.000000 -0.000000
										CHANNELS 3 Zrotation Yrotation Xrotation
										End Site
										{
											OFFSET 0.000000 0.000000 0.000000
										}
									}
								}
								JOINT RThumb
								{
									OFFSET 0.000000 0.000000 0.000000
									CHANNELS 3 Zrotation Yrotation Xrotation
									End Site
									{
										OFFSET 0.000000 0.000000 0.000000
									}
								}
							}
						}
					}
				}
			}
		}
	}
}
MOTION
Frames: 7
Frame Time: 0.008333
-0.318688 17.600459 -1.586915 0.527822 0.434230 2.369761 5.126698 4.798726 1.134640 -22.869358 -9.400460 -2.759627 0.250431 4.507087 17.091821 -0.803854 6.763609 -10.116258 0.707600 -5.376300 -14.985100 -7.623241 -5.169673 -0.249698 27.345789 6.848627 -3.545825 -1.724697 -5.386728 20.007960 0.944850 -11.561750 -14.789157 -0.297400 3.506600 -9.692400 2.268540 2.108702 5.480517 0.990336 2.821008 -1.803434 -1.278477 1.567067 -0.308495 -7.298698 -5.411566 -10.208215 3.686001 -6.858190 14.842946 1.493000 -3.448900 6.635200 1.451207 -3.846262 2.322936 -77.805370 12.716798 62.834343 97.592625 -58.388302 -66.286108 1.531193 0.502009 -10.799930 16.646797 20.135126 5.276600 -7.125000 0.000000 0.000000 -13.320700 50.254800 -1.752500 -1.814277 4.134463 1.981705 78.769649 -14.337112 52.613484 -96.253300 56.671012 -59.974269 -0.756180 -1.200626 -21.264870 -30.780164 26.965019 -15.114100 7.125000 0.000000 0.000000 0.509800 1.823500 0.525800 
-0.320538 17.605036 -1.586038 0.557547 0.411895 2.456270 5.124458 4.800059 1.131895 -22.886340 -9.369428 -2.773070 0.230877 4.458697 16.951008 -0.807883 6.771357 -10.088063 0.707900 -5.377200 -14.987700 -7.622698 -5.170742 -0.239269 27.321295 6.856122 -3.677880 -1.747536 -5.444504 20.169029 0.885703 -11.281868 -14.900309 -0.228300 3.075400 -8.488700 2.214752 2.124064 5.395774 0.983731 2.834751 -1.817060 -1.259959 1.573182 -0.294984 -7.303815 -5.424525 -10.231992 3.674382 -6.871894 14.837534 1.487000 -3.456200 6.637600 1.451764 -3.849032 2.322148 -77.796824 12.668577 62.857933 97.545753 -58.388118 -66.243019 1.528114 0.506090 -10.843729 16.647131 20.184115 5.289000 -7.125000 0.000000 0.000000 -13.335700 50.300500 -1.769700 -1.814543 4.135313 1.979685 78.798066 -14.342130 52.570605 -96.320769 56.660576 -60.038038 -0.751240 -1.201559 -21.251583 -30.715000 26.846094 -15.022400 7.125000 0.000000 0.000000 0.523700 1.678800 0.538800 
-0.320440 17.606983 -1.585552 0.589582 0.414018 2.463801 5.123613 4.801753 1.133442 -22.918551 -9.343167 -2.760151 0.226499 4.445721 16.917811 -0.807344 6.768219 -10.088752 0.701800 -5.354900 -14.923500 -7.619435 -5.172783 -0.243230 27.281040 6.801611 -3.661967 -1.739060 -5.420792 20.099898 0.888935 -11.267594 -14.835344 -0.240700 3.157400 -8.717400 2.189838 2.125922 5.395636 0.979117 2.835903 -1.825267 -1.252579 1.573827 -0.310161 -7.362873 -5.427751 -10.232653 3.702731 -6.872396 14.842832 1.509700 -3.458500 6.645400 1.450796 -3.851705 2.320301 -77.818168 12.665277 62.890956 97.502065 -58.390127 -66.204877 1.528759 0.509442 -10.830290 16.676187 20.227282 5.309200 -7.125000 0.000000 0.000000 -13.324600 50.344900 -1.782900 -1.816810 4.134866 1.979658 78.803172 -14.362042 52.529629 -96.297775 56.663671 -60.016417 -0.754440 -1.200220 -21.204346 -30.733618 26.913750 -15.063900 7.125000 0.000000 0.000000 0.526000 1.756000 0.541900 
-0.321803 17.606983 -1.585454 0.619235 0.441972 2.540020 5.123982 4.801635 1.131461 -22.930702 -9.321050 -2.823891 0.218371 4.426760 16.856557 -0.811746 6.754879 -9.986410 0.705200 -5.367200 -14.959000 -7.621248 -5.173935 -0.232775 27.248895 6.874560 -3.780897 -1.735150 -5.418829 20.075469 0.933961 -11.499267 -14.767973 -0.315900 3.613300 -9.991200 2.138537 2.121573 5.320581 0.975331 2.824029 -1.841453 -1.228532 1.567719 -0.304336 -7.390808 -5.424639 -10.256406 3.723010 -6.865663 14.869151 1.522500 -3.455500 6.663700 1.450064 -3.851371 2.317916 -77.807901 12.700456 62.914535 97.506296 -58.390947 -66.207997 1.536174 0.503293 -10.795522 16.749730 20.114278 5.307400 -7.125000 0.000000 0.000000 -13.219400 50.250400 -1.737300 -1.818193 4.133242 1.977902 78.796668 -14.371240 52.522303 -96.300812 56.663049 -60.019157 -0.756705 -1.198629 -21.241987 -30.666283 27.000442 -15.062100 7.125000 0.000000 0.000000 0.581100 1.827400 0.599400 
-0.324043 17.606886 -1.585649 0.682063 0.453849 2.614703 5.125797 4.800041 1.130417 -22.983067 -9.336423 -2.878777 0.211689 4.413111 16.812068 -0.820204 6.786286 -9.950716 0.714100 -5.400400 -15.054200 -7.620849 -5.171836 -0.225234 27.186372 6.972247 -3.836650 -1.726053 -5.401353 20.010663 0.958128 -11.637578 -14.761544 -0.344000 3.768700 -10.426900 2.051440 2.121290 5.251967 0.960723 2.816690 -1.858616 -1.214877 1.563318 -0.309040 -7.360442 -5.421700 -10.236967 3.699046 -6.863681 14.846276 1.507000 -3.454200 6.646300 1.450573 -3.851152 2.317441 -77.777527 12.718567 62.931790 97.486003 -58.391383 -66.187411 1.539804 0.497990 -10.777736 16.782278 20.019041 5.295700 -7.125000 0.000000 0.000000 -13.156700 50.166000 -1.701100 -1.819172 4.133126 1.976840 78.825557 -14.383864 52.508441 -96.325414 56.659952 -60.040389 -0.756867 -1.198094 -21.314430 -30.530787 27.044199 -15.000400 7.125000 0.000000 0.000000 0.667400 1.834300 0.688400 
-0.323361 17.607957 -1.585259 0.681857 0.414732 2.652082 5.125951 4.798326 1.129528 -22.987699 -9.367321 -2.894206 0.206955 4.404295 16.784016 -0.825052 6.823549 -9.986742 0.721500 -5.427800 -15.132800 -7.621657 -5.170427 -0.222855 27.186579 7.034843 -3.831874 -1.716141 -5.378852 19.940579 0.965005 -11.668991 -14.746927 -0.347000 3.785100 -10.472900 2.058690 2.132701 5.209354 0.955443 2.830094 -1.856797 -1.228128 1.569970 -0.282107 -7.355995 -5.421212 -10.265395 3.685779 -6.859518 14.834026 1.500400 -3.452400 6.644900 1.450712 -3.851244 2.318181 -77.768999 12.709726 62.934076 97.497247 -58.390925 -66.197367 1.542558 0.496467 -10.741899 16.802066 19.996646 5.296700 -7.125000 0.000000 0.000000 -13.131900 50.147700 -1.691900 -1.818926 4.132418 1.975958 78.835410 -14.360677 52.491601 -96.364918 56.654349 -60.078020 -0.753753 -1.198937 -21.295983 -30.530193 26.963291 -14.964500 7.125000 0.000000 0.000000 0.651800 1.748700 0.671500 
-0.323848 17.608443 -1.584773 0.681157 0.382973 2.690801 5.125041 4.797813 1.129714 -22.982766 -9.395226 -2.902550 0.202483 4.396036 16.757361 -0.824624 6.839580 -10.039071 0.714700 -5.402700 -15.060700 -7.621638 -5.171761 -0.223001 27.185748 7.017176 -3.861283 -1.712109 -5.369198 19.908866 0.961057 -11.627322 -14.706230 -0.348300 3.792000 -10.492100 2.035338 2.146064 5.157421 0.957448 2.844513 -1.853371 -1.208561 1.576777 -0.248509 -7.358174 -5.425620 -10.300995 3.680749 -6.861747 14.828533 1.497200 -3.453500 6.648700 1.451338 -3.850721 2.318642 -77.776543 12.699723 62.913793 97.495355 -58.390991 -66.195419 1.540642 0.496357 -10.640246 16.733219 20.036771 5.281600 -7.125000 0.000000 0.000000 -13.209400 50.173300 -1.710600 -1.818054 4.130780 1.975608 78.816186 -14.330135 52.499439 -96.357578 56.655470 -60.073321 -0.751452 -1.200332 -21.323191 -30.592900 26.904921 -14.975700 7.125000 0.000000 0.000000 0.604700 1.704900 0.622500 
